<?xml version="1.0" standalone="no"?>
<!DOCTYPE svg PUBLIC "-//W3C//DTD SVG 20010904//EN"
 "http://www.w3.org/TR/2001/REC-SVG-20010904/DTD/svg10.dtd">
<svg version="1.0" xmlns="http://www.w3.org/2000/svg"
 width="260.000000pt" height="260.000000pt" viewBox="0 0 260.000000 260.000000"
 preserveAspectRatio="xMidYMid meet">
<metadata>
Created by potrace 1.11, written by Peter Selinger 2001-2013
</metadata>
<g transform="translate(0.000000,260.000000) scale(0.100000,-0.100000)"
fill="#000000" stroke="none">
<path d="M1398 2372 c-22 -120 -21 -291 2 -361 25 -75 43 -96 153 -179 61 -45
97 -79 97 -91 0 -32 -44 -70 -76 -65 -16 2 -55 8 -87 12 -88 14 -313 12 -407
-4 -96 -15 -124 -6 -136 41 -8 32 1 43 102 116 133 96 155 141 159 324 3 119
-19 287 -34 268 -4 -4 -13 -43 -19 -85 -15 -100 -60 -194 -128 -268 -64 -68
-121 -106 -224 -149 -91 -38 -167 -94 -191 -141 -23 -45 -32 -110 -20 -142 7
-19 4 -36 -11 -69 -64 -145 -84 -347 -48 -491 38 -146 110 -261 237 -378 37
-34 91 -76 120 -93 l51 -32 -1 -85 c-1 -72 2 -93 24 -141 46 -99 136 -168 277
-214 45 -15 59 -16 100 -5 134 37 245 119 289 217 27 58 36 137 23 184 -10 34
-7 37 65 85 132 86 260 234 313 361 69 164 66 379 -7 569 -16 42 -25 78 -21
90 10 29 2 102 -16 136 -31 59 -84 99 -202 151 -223 98 -330 240 -356 471 -3
27 -7 50 -9 52 -2 2 -11 -35 -19 -84z m-231 -235 c-6 -81 -27 -152 -57 -193
-8 -11 -44 -40 -79 -63 -35 -24 -80 -60 -101 -81 -31 -31 -36 -42 -32 -68 4
-31 52 -92 72 -92 6 0 10 -30 10 -69 l0 -69 -50 -11 c-138 -30 -214 -1 -275
104 -47 81 -37 164 25 218 41 34 57 43 193 107 70 33 104 56 161 113 41 41 85
96 102 129 16 32 31 58 33 58 2 0 1 -37 -2 -83z m348 -65 c55 -68 144 -131
243 -172 118 -50 173 -94 193 -154 22 -64 10 -115 -43 -184 -53 -70 -90 -86
-183 -78 -118 10 -115 8 -115 85 0 61 2 69 23 80 30 16 57 61 57 94 0 31 -36
68 -127 133 -79 56 -88 65 -114 122 -14 29 -22 72 -25 135 l-5 92 28 -52 c15
-28 46 -74 68 -101z m3 -427 l52 -8 0 -63 0 -64 -72 8 c-96 9 -348 9 -420 -1
l-58 -8 0 64 0 64 73 10 c81 11 345 9 425 -2z m-788 -183 c39 -20 55 -23 125
-19 44 3 88 8 97 12 15 6 15 0 -4 -67 -55 -196 -148 -359 -239 -420 -61 -41
-76 -37 -104 25 -59 128 -69 315 -25 466 33 117 35 119 73 69 18 -24 52 -53
77 -66z m1280 -5 c43 -156 33 -337 -24 -463 -28 -61 -40 -65 -95 -32 -61 37
-116 107 -171 221 -35 72 -100 258 -94 268 2 4 23 3 46 -3 50 -11 131 -9 171
5 31 10 117 92 117 111 1 29 30 -33 50 -107z m-500 19 c14 -2 30 -5 35 -5 13
-1 17 -81 5 -81 -5 0 -11 4 -14 9 -3 5 -28 14 -56 21 -55 13 -105 3 -133 -28
-15 -16 -15 -19 3 -29 14 -10 21 -9 30 2 28 34 113 23 162 -22 19 -17 18 -49
-4 -138 -10 -43 -57 -145 -67 -145 -3 0 -16 16 -28 35 -27 42 -61 52 -114 35
-30 -10 -45 -11 -64 -2 -54 25 -98 6 -127 -52 l-15 -29 -26 44 c-33 57 -54
122 -62 191 l-7 56 53 25 c57 27 101 28 128 3 13 -12 19 -12 33 -2 17 12 17
14 0 28 -50 44 -114 47 -179 8 l-33 -19 0 44 c0 25 1 45 3 45 1 1 29 3 62 7
33 3 62 7 64 9 5 4 318 -5 351 -10z m-509 -235 c12 -77 55 -173 97 -221 32
-35 32 -35 32 -152 0 -65 -2 -118 -3 -118 -13 0 -71 36 -96 59 -22 21 -31 38
-31 61 0 33 25 90 39 90 11 0 25 -56 17 -69 -8 -12 21 -34 34 -26 25 15 2 118
-31 136 -28 15 -57 -5 -80 -54 -36 -81 -16 -148 59 -196 40 -25 116 -61 128
-61 2 0 4 61 4 135 0 74 2 135 4 135 3 0 16 -4 30 -10 l26 -10 0 -280 0 -281
-41 23 c-83 46 -107 103 -73 170 20 38 37 25 39 -29 1 -31 4 -38 20 -38 17 0
20 6 19 42 -2 54 -27 93 -59 93 -18 0 -31 -11 -51 -45 -58 -100 -16 -186 119
-244 27 -12 53 -21 58 -21 5 0 9 126 9 304 l0 304 25 0 25 0 0 -304 c0 -247 2
-304 13 -304 25 0 133 59 161 89 49 51 50 123 2 196 -37 57 -94 18 -100 -69
-4 -43 -2 -47 17 -44 18 2 22 10 23 41 2 55 18 67 38 29 19 -37 20 -91 3 -113
-16 -21 -89 -69 -104 -69 -9 0 -12 68 -12 275 0 260 1 275 19 285 38 20 40 14
40 -126 l0 -135 23 6 c56 18 138 70 161 104 42 60 27 160 -28 197 -44 28 -76
-5 -81 -82 -3 -39 7 -57 27 -49 11 5 15 17 14 41 -2 20 3 39 11 45 15 13 15
14 31 -24 15 -35 15 -72 1 -98 -10 -19 -94 -79 -110 -79 -4 0 -8 54 -8 121
l-2 121 31 31 c55 57 92 155 104 276 3 29 7 55 9 58 7 6 55 -201 71 -302 17
-106 14 -305 -4 -355 -7 -19 -25 -52 -41 -72 -26 -33 -28 -42 -21 -75 18 -83
-1 -171 -53 -239 -33 -44 -119 -98 -194 -123 -70 -24 -104 -20 -196 26 -147
74 -210 188 -183 332 7 40 5 48 -16 70 -80 86 -84 338 -9 636 19 75 29 101 31
80 1 -16 7 -59 13 -94z m-130 -213 c-15 -85 -6 -316 15 -350 21 -33 -75 40
-140 107 -47 49 -90 104 -85 109 2 2 22 13 44 24 44 22 119 97 150 150 24 41
29 29 16 -40z m394 58 c24 -12 33 -12 72 2 44 17 45 17 64 -7 32 -40 25 -66
-23 -86 -84 -33 -208 -11 -208 37 0 31 27 68 49 68 10 0 31 -6 46 -14z m471
-18 c25 -48 104 -127 149 -150 22 -11 42 -22 44 -24 11 -10 -85 -114 -170
-187 l-56 -47 14 73 c14 70 12 271 -3 340 -8 36 2 34 22 -5z"/>
<path d="M1136 1325 c-47 -17 -52 -21 -37 -39 10 -12 17 -12 43 -2 22 10 41
11 66 4 23 -7 38 -6 45 1 29 29 -60 55 -117 36z"/>
<path d="M1384 1330 c-48 -11 -56 -18 -43 -41 8 -16 13 -18 24 -9 19 15 66 16
94 0 19 -10 25 -10 32 1 14 22 11 26 -23 40 -41 17 -46 17 -84 9z"/>
</g>
</svg>
