<svg width="720" height="480" viewBox="0 0 720 480" xmlns="http://www.w3.org/2000/svg">
    <title>
        Artboard
    </title>
    <defs>
        <radialGradient cy="35.812%" fx="50%" fy="35.812%" r="81.34%" id="a">
            <stop stop-color="#E4E4E4" offset="0%"/>
            <stop stop-color="#F0F0F0" offset="100%"/>
        </radialGradient>
    </defs>
    <g fill="none" fill-rule="evenodd">
        <path fill="url(#a)" d="M0 0h720v480H0z"/>
        <path d="M346.649 239.862l1.667 1.89c.162-.143 4.02-3.471 8.052-.304l1.557-1.982c-4.528-3.56-9.357-1.298-11.276.396M363.542 241.448c3.996-3.14 7.89.166 8.055.307l1.663-1.893c-1.919-1.694-6.747-3.956-11.276-.396l1.558 1.982z" fill="#F2F2F2"/>
        <path d="M402.13 262.85c-2.591-.124-11.594-2.377-19.546-26.23-.617-2.267-1.292-4.6-2.024-7 2.105.59 5.281 1.288 8.541 1.288 3.556 0 7.211-.83 9.678-3.538 1.693-1.858 3.019-3.543 4.007-5.143 1.534 3.377 4.513 11.152 4.5 20.574-.01 7.18-1.747 13.92-5.155 20.05zm-16.653 17.529c.521-1.306.995-2.892 1.357-4.815 1.195-6.348.878-14.562-.937-24.552 5.82 10.856 11.545 13.612 14.803 14.22-3.615 5.605-8.713 10.678-15.223 15.147zm-7.603 20.165c-5.007 8.016-16.212 10.64-17.928 11-1.725-.359-12.966-2.97-18.004-11.016-2.652-4.236-3.16-9.347-1.51-15.19l.29-1.028-.907-.429.029-.05c-.2-.115-.391-.232-.588-.347-.902-.786-2.796-3.011-3.805-8.37-1.954-10.367.772-25.112 4.25-37.927.236-.714.472-1.447.705-2.197.062 8.724 1.941 15.63 5.703 20.967a15.886 15.886 0 0 0 3.335 3.459v15.528c-4.482-1.894-7.194-4.004-8.071-6.284-.806-2.094.013-4.181 1.018-6.126.663-1.28 1.11-1.546 1.21-1.592.158.081.564.52.928 1.466.428 1.111.352 3.574.204 4.865l2.505.29c.046-.405.433-4.01-.356-6.06-.738-1.918-1.856-3.014-3.146-3.085-2.003-.11-3.19 2.2-3.584 2.958-1.214 2.349-2.298 5.158-1.132 8.19 1.271 3.303 4.948 6.055 11.241 8.415l1.704.64v-17.616a17 17 0 0 0 3.781 1.392v35.656c-4.492-1.897-7.21-4.01-8.088-6.29-.804-2.088.012-4.167 1.013-6.102.647-1.251 1.086-1.53 1.194-1.584.164.09.556.526.92 1.475.426 1.106.324 3.585.16 4.887l2.502.316c.052-.408.483-4.05-.309-6.108-.75-1.953-1.836-3.024-3.137-3.096a2.148 2.148 0 0 0-.137-.004c-1.903 0-3.05 2.216-3.432 2.956-1.21 2.34-2.291 5.14-1.127 8.165 1.271 3.303 4.954 6.058 11.259 8.423l1.703.638v-38.926a17.381 17.381 0 0 0 1.521.072c.62 0 1.234-.036 1.84-.099v38.953l1.703-.638c6.303-2.364 9.985-5.118 11.256-8.42 1.164-3.026.083-5.827-1.128-8.168-.392-.757-1.592-3.074-3.57-2.952-1.285.07-2.4 1.17-3.141 3.096-.792 2.058-.357 5.7-.305 6.11l2.5-.319c-.164-1.302-.268-3.78.158-4.886.366-.951.758-1.386.923-1.475.106.052.546.33 1.196 1.584 1 1.936 1.817 4.016 1.014 6.104-.877 2.28-3.594 4.392-8.085 6.288v-35.73c1.324-.339 2.591-.833 3.782-1.472v17.77l1.703-.64c6.298-2.36 9.977-5.116 11.25-8.421 1.166-3.032.083-5.839-1.13-8.184-.392-.758-1.592-3.067-3.579-2.958-1.287.07-2.4 1.167-3.139 3.085-.79 2.052-.398 5.657-.35 6.06l2.503-.291c-.15-1.29-.227-3.753.2-4.864.361-.939.763-1.38.922-1.465.104.05.548.323 1.204 1.591 1.004 1.94 1.821 4.025 1.015 6.12-.878 2.283-3.593 4.394-8.078 6.29V259.19a17.13 17.13 0 0 0 3.097-3.207c3.51-4.744 5.38-11.325 5.592-19.628l.063-.072c-.01-.01-.033-.028-.061-.052.016-.678.021-1.366.015-2.066.325 1.064.652 2.094.982 3.087 9.627 35.421 2.303 44.556.35 46.269-.176.102-.348.207-.526.31l.03.05-.908.432.29 1.024c1.651 5.851 1.146 10.968-1.502 15.207zm-58.756-35.293c3.261-.61 8.98-3.367 14.792-14.207-1.815 9.987-2.13 18.196-.937 24.537.36 1.914.833 3.492 1.351 4.793-6.5-4.462-11.593-9.529-15.206-15.123zm-6.597-22.35c-.033-9.354 2.905-17.125 4.456-20.571.982 1.57 2.286 3.222 3.943 5.04 2.468 2.708 6.121 3.538 9.678 3.538 3.329 0 6.57-.727 8.672-1.325a240.999 240.999 0 0 0-2.047 7.074c-7.954 23.86-16.956 26.094-19.535 26.216-3.4-6.107-5.141-12.82-5.167-19.971zm5.614-32.475c1.664-4.578 11.115-8.582 14.617-9.739l.07-.025c.64-.255 13.84-5.68 18.996-20.341.424 6.689-.01 16.362-5.357 20.25a330.696 330.696 0 0 1-4.069 2.904c-6.247 4.408-9.383 6.62-7.076 10.773 1.53 2.754 3.307 3.797 4.478 4.191l.113 8.308c-2.915.949-12.785 3.686-17.123-1.075-5.583-6.128-6.67-9.69-4.649-15.246zm59.25 8.005l-.11 8.077c-2.066-.265-10.68-1.318-17.318-1.37-6.3-.047-15.129 1.037-17.532 1.349l-.11-8.042c3.816-.722 18.185-2.992 35.07-.014zm-17.598 41.923h-.18a14.555 14.555 0 0 1-7.642-2.254v-2.629c.234-.558 1.046-2.277 2.389-2.886.641-.29 1.334-.28 2.09.025.433.185.688.363.958.55.66.46 1.266.812 2.546.812 1.343 0 1.978-.43 2.538-.81.28-.189.544-.368.948-.541.78-.314 1.469-.327 2.107-.04 1.229.555 2.08 2.13 2.39 2.884v2.45c-2.36 1.58-5.165 2.44-8.144 2.44zm4.636-23.862c.946-1.34 2.115-2.079 3.575-2.258 3.183-.392 6.866 1.943 8.582 3.198-.328 7.222-2.015 12.94-5.057 17.052-.336.453-.694.88-1.071 1.286v-.75l-.07-.202c-.048-.136-1.191-3.347-3.79-4.528-1.267-.575-2.684-.578-4.125.002-.652.28-1.081.571-1.395.784-.437.296-.554.375-1.124.375-.59 0-.689-.069-1.105-.359-.311-.216-.736-.512-1.432-.81-1.415-.57-2.832-.567-4.099.007-2.601 1.18-3.75 4.391-3.798 4.527l-.07.202v1.02c-.46-.478-.89-.987-1.274-1.533-3.07-4.356-4.775-9.92-5.16-16.845 1.87-1.43 5.741-3.81 8.897-3.426 1.461.178 2.632.916 3.579 2.258l2.06-1.454c-1.362-1.929-3.157-3.041-5.335-3.307-3.441-.417-7.05 1.444-9.29 2.913a70.006 70.006 0 0 1 .233-5.708c2.822-.356 11.027-1.32 16.784-1.277 6.019.047 13.742.941 16.46 1.28.154 1.906.23 3.728.24 5.478-2.256-1.427-5.673-3.084-8.94-2.686-2.178.266-3.973 1.378-5.335 3.307l2.06 1.454zm15.483-18.053c1.17-.394 2.948-1.437 4.477-4.19 2.307-4.154-.829-6.366-7.076-10.774a333.94 333.94 0 0 1-4.069-2.903c-5.34-3.883-5.776-13.554-5.355-20.244 5.158 14.657 18.355 20.08 18.993 20.334l.072.025c3.501 1.157 12.952 5.161 14.616 9.739 2.021 5.556.935 9.118-4.649 15.246-4.337 4.761-14.208 2.024-17.123 1.075l.114-8.308zm24.31.961c1.215-3.16 1.047-6.181-.283-9.836-2.376-6.536-15.145-10.92-16.15-11.256-.781-.327-16.603-7.208-19.08-25.319l-1.034-7.569-1.452 7.5c-.177.919-4.241 22.578 5.538 29.69a334.554 334.554 0 0 0 4.099 2.925c6.49 4.58 7.45 5.463 6.326 7.489-1.39 2.5-2.878 3.006-3.359 3.107-19.665-3.685-35.83-.429-37.86.013-.43-.07-1.99-.51-3.441-3.12-1.126-2.027-.166-2.909 6.325-7.489 1.21-.853 2.58-1.82 4.099-2.924 9.78-7.113 5.716-28.772 5.538-29.69l-1.451-7.5-1.035 7.568c-2.477 18.119-18.312 24.998-19.079 25.32-1.003.334-13.774 4.718-16.151 11.255-1.346 3.699-1.5 6.75-.235 9.952-.986 1.873-5.548 11.192-5.53 23.289.01 7.825 1.953 15.166 5.776 21.818 4.625 8.048 12.027 15.078 21.994 20.912-1.557 6.195-.874 11.685 2.034 16.33 6.024 9.622 19.356 12.103 19.92 12.204l.223.04.222-.04c.562-.1 13.829-2.577 19.835-12.178 2.91-4.65 3.591-10.15 2.032-16.356 9.967-5.834 17.37-12.864 21.994-20.912 3.822-6.652 5.766-13.993 5.776-21.818.017-12.37-4.753-21.836-5.592-23.405z" fill="#F3F3F3"/>
    </g>
</svg>
